<?xml version="1.0" standalone="no"?>
<!DOCTYPE svg PUBLIC "-//W3C//DTD SVG 20010904//EN"
 "http://www.w3.org/TR/2001/REC-SVG-20010904/DTD/svg10.dtd">
<svg version="1.0" xmlns="http://www.w3.org/2000/svg"
 width="512.000000pt" height="512.000000pt" viewBox="0 0 512.000000 512.000000"
 preserveAspectRatio="xMidYMid meet">
<metadata>
Created by potrace 1.16, written by Peter Selinger 2001-2019
</metadata>
<g transform="translate(0.000000,512.000000) scale(0.100000,-0.100000)"
fill="#000000" stroke="none">
<path d="M2651 4795 c-394 -86 -691 -361 -808 -750 -25 -85 -27 -102 -27 -285
0 -183 1 -200 27 -285 110 -363 374 -628 731 -730 48 -14 99 -25 112 -25 l24
0 0 -257 c0 -236 2 -260 19 -287 31 -47 69 -66 132 -66 46 0 63 5 95 29 21 16
160 151 309 300 l270 271 328 0 c260 0 344 3 405 16 219 45 396 140 551 295
125 126 212 273 268 456 26 83 27 99 27 283 0 184 -1 200 -27 283 -57 185
-143 330 -273 460 -153 153 -328 246 -546 291 -67 14 -179 16 -815 15 -590 0
-751 -3 -802 -14z m1477 -295 c174 -19 323 -86 448 -203 156 -146 234 -324
234 -537 0 -116 -17 -201 -60 -296 -85 -190 -255 -343 -452 -408 -109 -37
-221 -46 -578 -46 -275 0 -319 -2 -340 -16 -14 -9 -103 -94 -197 -188 l-173
-171 0 139 c0 203 -19 227 -202 245 -217 21 -383 108 -523 271 -56 67 -129
211 -149 300 -23 94 -21 259 4 354 76 296 339 524 644 556 107 11 1237 11
1344 0z"/>
<path d="M2776 3891 c-46 -31 -66 -69 -66 -131 0 -62 20 -100 66 -131 39 -26
129 -26 168 0 46 31 66 69 66 131 0 62 -20 100 -66 131 -20 13 -47 19 -84 19
-37 0 -64 -6 -84 -19z"/>
<path d="M3376 3891 c-46 -31 -66 -69 -66 -131 0 -62 20 -100 66 -131 39 -26
129 -26 168 0 46 31 66 69 66 131 0 62 -20 100 -66 131 -20 13 -47 19 -84 19
-37 0 -64 -6 -84 -19z"/>
<path d="M3976 3891 c-46 -31 -66 -69 -66 -131 0 -62 20 -100 66 -131 39 -26
129 -26 168 0 46 31 66 69 66 131 0 62 -20 100 -66 131 -20 13 -47 19 -84 19
-37 0 -64 -6 -84 -19z"/>
<path d="M301 4100 c-119 -43 -210 -126 -265 -240 -30 -62 -31 -71 -34 -215
-10 -402 100 -868 308 -1301 369 -772 1042 -1425 1822 -1768 405 -178 845
-273 1219 -264 138 3 147 4 212 35 90 43 173 126 218 218 l34 70 3 385 c3 348
2 388 -14 417 -9 18 -28 40 -42 49 -14 9 -233 86 -486 170 -350 117 -473 154
-511 154 -48 0 -60 -7 -255 -136 l-204 -137 -56 29 c-308 161 -687 515 -909
850 -133 200 -136 157 23 395 129 194 136 206 136 254 0 38 -37 162 -154 512
-85 254 -161 472 -169 484 -9 12 -29 30 -44 40 -26 18 -55 19 -403 19 -345 -1
-379 -2 -429 -20z m755 -642 l121 -363 -139 -208 c-135 -204 -138 -209 -138
-263 0 -43 9 -72 44 -147 107 -223 268 -440 506 -678 252 -254 463 -414 699
-531 83 -42 116 -53 166 -56 l61 -4 209 139 210 140 363 -121 363 -121 -3
-260 c-3 -240 -5 -263 -23 -295 -36 -60 -69 -72 -198 -71 -588 6 -1234 260
-1792 705 -209 168 -487 467 -649 699 -341 490 -546 1083 -546 1575 0 98 3
122 20 149 39 65 68 71 365 72 l240 1 121 -362z"/>
</g>
</svg>
